<svg width="21" height="21" viewBox="0 0 21 21" fill="none" xmlns="http://www.w3.org/2000/svg">
<g clip-path="url(#clip0_710_7812)">
<path d="M10.5001 6.23975C9.94064 6.23975 9.38664 6.34994 8.86975 6.56405C8.35285 6.77815 7.88319 7.09197 7.48758 7.48758C7.09197 7.88319 6.77815 8.35285 6.56405 8.86975C6.34994 9.38664 6.23975 9.94064 6.23975 10.5001C6.23975 11.0596 6.34994 11.6136 6.56405 12.1305C6.77815 12.6474 7.09197 13.117 7.48758 13.5127C7.88319 13.9083 8.35285 14.2221 8.86975 14.4362C9.38664 14.6503 9.94064 14.7605 10.5001 14.7605C11.63 14.7605 12.7137 14.3116 13.5127 13.5127C14.3116 12.7137 14.7605 11.63 14.7605 10.5001C14.7605 9.3702 14.3116 8.28656 13.5127 7.48758C12.7137 6.68861 11.63 6.23975 10.5001 6.23975ZM7.55225 10.5001C7.55225 9.7183 7.86283 8.96849 8.41566 8.41566C8.96849 7.86282 9.7183 7.55225 10.5001 7.55225C11.2819 7.55225 12.0317 7.86282 12.5846 8.41566C13.1374 8.96849 13.448 9.7183 13.448 10.5001C13.448 11.2819 13.1374 12.0317 12.5846 12.5846C12.0317 13.1374 11.2819 13.448 10.5001 13.448C9.7183 13.448 8.96849 13.1374 8.41566 12.5846C7.86283 12.0317 7.55225 11.2819 7.55225 10.5001Z" fill="white"/>
<path d="M12.8571 1.76252C12.1654 -0.586855 8.83427 -0.586855 8.14258 1.76252L8.01921 2.18121C7.9709 2.34521 7.88651 2.49632 7.77222 2.62346C7.65792 2.75061 7.51662 2.85057 7.35868 2.91601C7.20073 2.98146 7.03015 3.01072 6.85942 3.00167C6.6887 2.99262 6.52216 2.94548 6.37202 2.86371L5.98877 2.65371C3.83627 1.48296 1.48296 3.83758 2.65502 5.98877L2.86371 6.37202C2.94548 6.52216 2.99262 6.6887 3.00167 6.85942C3.01072 7.03015 2.98146 7.20073 2.91601 7.35868C2.85057 7.51662 2.75061 7.65792 2.62346 7.77222C2.49632 7.88651 2.34521 7.9709 2.18121 8.01921L1.76252 8.14258C-0.586855 8.83427 -0.586855 12.1654 1.76252 12.8571L2.18121 12.9805C2.34521 13.0288 2.49632 13.1132 2.62346 13.2274C2.75061 13.3417 2.85057 13.483 2.91601 13.641C2.98146 13.7989 3.01072 13.9695 3.00167 14.1402C2.99262 14.311 2.94548 14.4775 2.86371 14.6276L2.65371 15.0109C1.48296 17.1634 3.83627 19.518 5.98877 18.3446L6.37202 18.136C6.52216 18.0542 6.6887 18.007 6.85942 17.998C7.03015 17.9889 7.20073 18.0182 7.35868 18.0836C7.51662 18.1491 7.65792 18.2491 7.77222 18.3762C7.88651 18.5033 7.9709 18.6545 8.01921 18.8185L8.14258 19.2371C8.83427 21.5865 12.1654 21.5865 12.8571 19.2371L12.9805 18.8185C13.0288 18.6545 13.1132 18.5033 13.2274 18.3762C13.3417 18.2491 13.483 18.1491 13.641 18.0836C13.7989 18.0182 13.9695 17.9889 14.1402 17.998C14.311 18.007 14.4775 18.0542 14.6276 18.136L15.0109 18.346C17.1634 19.518 19.518 17.1621 18.3446 15.0109L18.136 14.6276C18.0542 14.4775 18.007 14.311 17.998 14.1402C17.9889 13.9695 18.0182 13.7989 18.0836 13.641C18.1491 13.483 18.2491 13.3417 18.3762 13.2274C18.5033 13.1132 18.6545 13.0288 18.8185 12.9805L19.2371 12.8571C21.5865 12.1654 21.5865 8.83427 19.2371 8.14258L18.8185 8.01921C18.6545 7.9709 18.5033 7.88651 18.3762 7.77222C18.2491 7.65792 18.1491 7.51662 18.0836 7.35868C18.0182 7.20073 17.9889 7.03015 17.998 6.85942C18.007 6.6887 18.0542 6.52216 18.136 6.37202L18.346 5.98877C19.518 3.83627 17.1621 1.48296 15.0109 2.65502L14.6276 2.86371C14.4775 2.94548 14.311 2.99262 14.1402 3.00167C13.9695 3.01072 13.7989 2.98146 13.641 2.91601C13.483 2.85057 13.3417 2.75061 13.2274 2.62346C13.1132 2.49632 13.0288 2.34521 12.9805 2.18121L12.8571 1.76252ZM9.40127 2.13396C9.72414 1.03802 11.2755 1.03802 11.5984 2.13396L11.7218 2.55264C11.8255 2.90451 12.0066 3.2287 12.2519 3.50145C12.4972 3.7742 12.8004 3.9886 13.1394 4.12893C13.4783 4.26926 13.8443 4.33196 14.2106 4.31243C14.5769 4.2929 14.9342 4.19165 15.2563 4.01608L15.6383 3.80608C16.641 3.26139 17.7383 4.35733 17.1923 5.36139L16.9836 5.74464C16.8083 6.06677 16.7073 6.42403 16.688 6.79025C16.6686 7.15648 16.7315 7.52238 16.872 7.86116C17.0124 8.19994 17.2269 8.503 17.4996 8.74814C17.7724 8.99328 18.0965 9.17428 18.4483 9.27789L18.8657 9.40127C19.9616 9.72414 19.9616 11.2755 18.8657 11.5984L18.447 11.7218C18.0952 11.8255 17.771 12.0066 17.4982 12.2519C17.2255 12.4972 17.0111 12.8004 16.8707 13.1394C16.7304 13.4783 16.6677 13.8443 16.6872 14.2106C16.7068 14.5769 16.808 14.9342 16.9836 15.2563L17.1936 15.6383C17.7383 16.641 16.6423 17.7383 15.6383 17.1923L15.2563 16.9836C14.9342 16.808 14.5768 16.7068 14.2104 16.6874C13.844 16.6679 13.4779 16.7308 13.139 16.8712C12.8 17.0117 12.4968 17.2262 12.2516 17.4991C12.0064 17.772 11.8253 18.0964 11.7218 18.4483L11.5984 18.8657C11.2755 19.9616 9.72414 19.9616 9.40127 18.8657L9.27789 18.447C9.17413 18.0953 8.99302 17.7713 8.74782 17.4987C8.50261 17.2261 8.19953 17.0118 7.86077 16.8715C7.52202 16.7312 7.15616 16.6684 6.79001 16.6878C6.42386 16.7072 6.06668 16.8083 5.74464 16.9836L5.36139 17.1936C4.35864 17.7383 3.26139 16.6423 3.80739 15.6383L4.01608 15.2563C4.19189 14.9342 4.29335 14.5768 4.313 14.2103C4.33266 13.8438 4.27002 13.4776 4.12967 13.1385C3.98932 12.7994 3.77484 12.4961 3.50195 12.2507C3.22906 12.0053 2.90469 11.8241 2.55264 11.7205L2.13396 11.5971C1.03802 11.2742 1.03802 9.72283 2.13396 9.39996L2.55264 9.27658C2.90414 9.17278 3.22798 8.99169 3.50046 8.74658C3.77293 8.50147 3.98716 8.19853 4.12745 7.85994C4.26774 7.52135 4.33055 7.15568 4.31128 6.78968C4.29201 6.42369 4.19115 6.06663 4.01608 5.74464L3.80608 5.36139C3.26139 4.35864 4.35733 3.26139 5.36139 3.80739L5.74464 4.01608C6.06668 4.1914 6.42386 4.29246 6.79001 4.31186C7.15616 4.33126 7.52202 4.2685 7.86077 4.12819C8.19953 3.98788 8.50261 3.77357 8.74782 3.50095C8.99302 3.22834 9.17413 2.90432 9.27789 2.55264L9.40127 2.13396Z" fill="white"/>
</g>
<defs>
<clipPath id="clip0_710_7812">
<rect width="21" height="21" fill="white"/>
</clipPath>
</defs>
</svg>
